<svg xmlns="http://www.w3.org/2000/svg" viewBox="14 0 56 84" width="500" height="500">
  <rect x="14" y="0" width="56" height="84" fill="#111111"/>
  <rect x="20" y="5"  width="4" height="4" rx="1" fill="#5eead4"/><rect x="25" y="5"  width="4" height="4" rx="1" fill="#5eead4"/><rect x="30" y="5"  width="4" height="4" rx="1" fill="#5eead4"/><rect x="35" y="5"  width="4" height="4" rx="1" fill="#5eead4"/><rect x="40" y="5"  width="4" height="4" rx="1" fill="#5eead4"/><rect x="45" y="5"  width="4" height="4" rx="1" fill="#5eead4"/><rect x="50" y="5"  width="4" height="4" rx="1" fill="#5eead4"/><rect x="55" y="5"  width="4" height="4" rx="1" fill="#5eead4"/><rect x="60" y="5"  width="4" height="4" rx="1" fill="#5eead4"/>
  <rect x="20" y="10" width="4" height="4" rx="1" fill="#5eead4"/><rect x="25" y="10" width="4" height="4" rx="1" fill="#5eead4"/><rect x="30" y="10" width="4" height="4" rx="1" fill="#5eead4"/><rect x="35" y="10" width="4" height="4" rx="1" fill="#5eead4"/><rect x="40" y="10" width="4" height="4" rx="1" fill="#5eead4"/><rect x="45" y="10" width="4" height="4" rx="1" fill="#5eead4"/><rect x="50" y="10" width="4" height="4" rx="1" fill="#5eead4"/><rect x="55" y="10" width="4" height="4" rx="1" fill="#5eead4"/><rect x="60" y="10" width="4" height="4" rx="1" fill="#5eead4"/>
  <rect x="20" y="15" width="4" height="4" rx="1" fill="#5eead4"/><rect x="25" y="15" width="4" height="4" rx="1" fill="#5eead4"/><rect x="30" y="15" width="4" height="4" rx="1" fill="#5eead4"/><rect x="35" y="15" width="4" height="4" rx="1" fill="#5eead4"/><rect x="40" y="15" width="4" height="4" rx="1" fill="#5eead4"/><rect x="45" y="15" width="4" height="4" rx="1" fill="#5eead4"/><rect x="50" y="15" width="4" height="4" rx="1" fill="#5eead4"/><rect x="55" y="15" width="4" height="4" rx="1" fill="#5eead4"/><rect x="60" y="15" width="4" height="4" rx="1" fill="#5eead4"/>
  <rect x="20" y="20" width="4" height="4" rx="1" fill="#5eead4"/><rect x="25" y="20" width="4" height="4" rx="1" fill="#5eead4"/><rect x="30" y="20" width="4" height="4" rx="1" fill="#5eead4"/>
  <rect x="20" y="25" width="4" height="4" rx="1" fill="#5eead4"/><rect x="25" y="25" width="4" height="4" rx="1" fill="#5eead4"/><rect x="30" y="25" width="4" height="4" rx="1" fill="#5eead4"/>
  <rect x="20" y="30" width="4" height="4" rx="1" fill="#5eead4"/><rect x="25" y="30" width="4" height="4" rx="1" fill="#5eead4"/><rect x="30" y="30" width="4" height="4" rx="1" fill="#5eead4"/>
  <rect x="20" y="35" width="4" height="4" rx="1" fill="#5eead4"/><rect x="25" y="35" width="4" height="4" rx="1" fill="#5eead4"/><rect x="30" y="35" width="4" height="4" rx="1" fill="#5eead4"/><rect x="35" y="35" width="4" height="4" rx="1" fill="#5eead4"/><rect x="40" y="35" width="4" height="4" rx="1" fill="#5eead4"/><rect x="45" y="35" width="4" height="4" rx="1" fill="#5eead4"/><rect x="50" y="35" width="4" height="4" rx="1" fill="#5eead4"/><rect x="55" y="35" width="4" height="4" rx="1" fill="#5eead4"/><rect x="60" y="35" width="4" height="4" rx="1" fill="#5eead4"/>
  <rect x="20" y="40" width="4" height="4" rx="1" fill="#5eead4"/><rect x="25" y="40" width="4" height="4" rx="1" fill="#5eead4"/><rect x="30" y="40" width="4" height="4" rx="1" fill="#5eead4"/><rect x="35" y="40" width="4" height="4" rx="1" fill="#5eead4"/><rect x="40" y="40" width="4" height="4" rx="1" fill="#5eead4"/><rect x="45" y="40" width="4" height="4" rx="1" fill="#5eead4"/><rect x="50" y="40" width="4" height="4" rx="1" fill="#5eead4"/><rect x="55" y="40" width="4" height="4" rx="1" fill="#5eead4"/><rect x="60" y="40" width="4" height="4" rx="1" fill="#5eead4"/>
  <rect x="20" y="45" width="4" height="4" rx="1" fill="#5eead4"/><rect x="25" y="45" width="4" height="4" rx="1" fill="#5eead4"/><rect x="30" y="45" width="4" height="4" rx="1" fill="#5eead4"/><rect x="35" y="45" width="4" height="4" rx="1" fill="#5eead4"/><rect x="40" y="45" width="4" height="4" rx="1" fill="#5eead4"/><rect x="45" y="45" width="4" height="4" rx="1" fill="#5eead4"/><rect x="50" y="45" width="4" height="4" rx="1" fill="#5eead4"/><rect x="55" y="45" width="4" height="4" rx="1" fill="#5eead4"/><rect x="60" y="45" width="4" height="4" rx="1" fill="#5eead4"/>
  <rect x="50" y="50" width="4" height="4" rx="1" fill="#5eead4"/><rect x="55" y="50" width="4" height="4" rx="1" fill="#5eead4"/><rect x="60" y="50" width="4" height="4" rx="1" fill="#5eead4"/>
  <rect x="50" y="55" width="4" height="4" rx="1" fill="#5eead4"/><rect x="55" y="55" width="4" height="4" rx="1" fill="#5eead4"/><rect x="60" y="55" width="4" height="4" rx="1" fill="#5eead4"/>
  <rect x="50" y="60" width="4" height="4" rx="1" fill="#5eead4"/><rect x="55" y="60" width="4" height="4" rx="1" fill="#5eead4"/><rect x="60" y="60" width="4" height="4" rx="1" fill="#5eead4"/>
  <rect x="20" y="65" width="4" height="4" rx="1" fill="#5eead4"/><rect x="25" y="65" width="4" height="4" rx="1" fill="#5eead4"/><rect x="30" y="65" width="4" height="4" rx="1" fill="#5eead4"/><rect x="35" y="65" width="4" height="4" rx="1" fill="#5eead4"/><rect x="40" y="65" width="4" height="4" rx="1" fill="#5eead4"/><rect x="45" y="65" width="4" height="4" rx="1" fill="#5eead4"/><rect x="50" y="65" width="4" height="4" rx="1" fill="#5eead4"/><rect x="55" y="65" width="4" height="4" rx="1" fill="#5eead4"/><rect x="60" y="65" width="4" height="4" rx="1" fill="#5eead4"/>
  <rect x="20" y="70" width="4" height="4" rx="1" fill="#5eead4"/><rect x="25" y="70" width="4" height="4" rx="1" fill="#5eead4"/><rect x="30" y="70" width="4" height="4" rx="1" fill="#5eead4"/><rect x="35" y="70" width="4" height="4" rx="1" fill="#5eead4"/><rect x="40" y="70" width="4" height="4" rx="1" fill="#5eead4"/><rect x="45" y="70" width="4" height="4" rx="1" fill="#5eead4"/><rect x="50" y="70" width="4" height="4" rx="1" fill="#5eead4"/><rect x="55" y="70" width="4" height="4" rx="1" fill="#5eead4"/><rect x="60" y="70" width="4" height="4" rx="1" fill="#5eead4"/>
  <rect x="20" y="75" width="4" height="4" rx="1" fill="#5eead4"/><rect x="25" y="75" width="4" height="4" rx="1" fill="#5eead4"/><rect x="30" y="75" width="4" height="4" rx="1" fill="#5eead4"/><rect x="35" y="75" width="4" height="4" rx="1" fill="#5eead4"/><rect x="40" y="75" width="4" height="4" rx="1" fill="#5eead4"/><rect x="45" y="75" width="4" height="4" rx="1" fill="#5eead4"/><rect x="50" y="75" width="4" height="4" rx="1" fill="#5eead4"/><rect x="55" y="75" width="4" height="4" rx="1" fill="#5eead4"/><rect x="60" y="75" width="4" height="4" rx="1" fill="#5eead4"/>
</svg>
